inDegrees=no
num_controls=7
num_derivatives=13
num_iterations=93
num_multipliers=7
num_parameters=0
num_slacks=7
num_states=26
objective=0.444962
objective_accelerations=0.058121
objective_balance=0.003334
objective_effort=0.023038
objective_height=0.354993
objective_ligament=0.005476
solver_duration=1338.331650
status=Solve_Succeeded
success=true
DataType=double
version=3
OpenSimVersion=4.5
endheader
time	/jointset/ground_pelvis/pelvis_tilt/value	/jointset/ground_pelvis/pelvis_tx/value	/jointset/ground_pelvis/pelvis_ty/value	/jointset/hip_l/hip_flexion_l/value	/jointset/hip_l/hip_adduction_l/value	/jointset/hip_l/hip_rotation_l/value	/jointset/back/lumbar_extension/value	/jointset/patellofemoral_l/patellar_flexion_l/value	/jointset/knee_l/knee_flexion_l/value	/jointset/knee_l/knee_adduction_l/value	/jointset/knee_l/knee_rotation_l/value	/jointset/ankle_l/ankle_angle_l/value	/jointset/subtalar_l/subtalar_angle_l/value	/jointset/ground_pelvis/pelvis_tilt/speed	/jointset/ground_pelvis/pelvis_tx/speed	/jointset/ground_pelvis/pelvis_ty/speed	/jointset/hip_l/hip_flexion_l/speed	/jointset/hip_l/hip_adduction_l/speed	/jointset/hip_l/hip_rotation_l/speed	/jointset/back/lumbar_extension/speed	/jointset/patellofemoral_l/patellar_flexion_l/speed	/jointset/knee_l/knee_flexion_l/speed	/jointset/knee_l/knee_adduction_l/speed	/jointset/knee_l/knee_rotation_l/speed	/jointset/ankle_l/ankle_angle_l/speed	/jointset/subtalar_l/subtalar_angle_l/speed	/forceset/tau_hip_flexion_l	/forceset/tau_hip_adduction_l	/forceset/tau_hip_rotation_l	/forceset/tau_knee_flexion_l	/forceset/tau_ankle_angle_l	/forceset/tau_subtalar_angle_l	/forceset/tau_lumbar_extension	lambda_cid13_p0	lambda_cid13_p1	lambda_cid13_p2	lambda_cid13_p3	lambda_cid13_p4	lambda_cid13_p5	lambda_cid14_p0	/jointset/ground_pelvis/pelvis_tilt/accel	/jointset/ground_pelvis/pelvis_tx/accel	/jointset/ground_pelvis/pelvis_ty/accel	/jointset/hip_l/hip_flexion_l/accel	/jointset/hip_l/hip_adduction_l/accel	/jointset/hip_l/hip_rotation_l/accel	/jointset/back/lumbar_extension/accel	/jointset/patellofemoral_l/patellar_flexion_l/accel	/jointset/knee_l/knee_flexion_l/accel	/jointset/knee_l/knee_adduction_l/accel	/jointset/knee_l/knee_rotation_l/accel	/jointset/ankle_l/ankle_angle_l/accel	/jointset/subtalar_l/subtalar_angle_l/accel	gamma_cid13_p0	gamma_cid13_p1	gamma_cid13_p2	gamma_cid13_p3	gamma_cid13_p4	gamma_cid13_p5	gamma_cid14_p0
1.5	-0.3629781511914932	-0.01908777198863258	0.7605020866525588	1.103825338826294	-0.4354573090505135	-0.2076106904171639	-0.2257345752669696	0.8187875516842169	0.8187875516841621	-0.1273807265287872	-0.1447038284455683	0.1418010741998631	-0.01225318183071828	0.6621184038513582	0.2628941850708572	0.5391607435961718	-2.450849501407625	0.2097396713855003	-0.7183042734163355	0.3128893959002522	-2.048882343799793	-2.048882343799654	-0.1415709134069105	0.1403106384665192	-0.4297268488293096	0.01894982569418718	-0.1735726103528023	0.04035033337902694	-0.008578517765215368	-0.2036249306319655	0.03787376843899778	0.03462836737065587	0.167743193186138	-20.05435374900485	-14.23696187113844	5.028440647325462	-6.358070489461965	-519.9208551295044	-53.17733805902136	-24.26484335401566	0.6731714996282276	0.6783281228433595	-0.527849983169361	-1.272120016502964	0.7124515071826567	-0.2278032066149032	1.453908737291713	-1.357111244245051	-1.357111244245051	0.1598474926930876	0.2112475216603747	-0.5662597592585946	0.4874802374758939	5.518773713914035e-07	1.997688168322081e-07	-3.569934340118843e-06	-2.166112107246069e-07	8.193409613975519e-07	-3.442571063484517e-08	4.987832486978358e-07
1.51	-0.3563233021142695	-0.01642512220323626	0.765866222275382	1.079254770485932	-0.4333260862504514	-0.214801245906774	-0.2225343990924532	0.798233140718157	0.7982331407180363	-0.1287937508759562	-0.1432898602632843	0.1374757571216362	-0.01204147166842684	0.66875134800724	0.2696054619751095	0.5335495773194396	-2.462920289013702	0.2164750654019498	-0.719671183875235	0.3271072770181701	-2.061702803158571	-2.06170280315855	-0.1410565721423545	0.1424913885866287	-0.4352508567183126	0.02339518742401235	-0.1674327002333287	0.03924110865494002	-0.00824137163504012	-0.2009975023668415	0.03852047065563261	0.03400677868413503	0.1627661115235871	-19.63090947816676	-14.0598236313677	5.021530919990241	-6.385350044137575	-515.870971846433	-53.45368113088855	-25.19783843242802	0.6434124764599811	0.6629519245055217	-0.595101537929642	-1.12289457861855	0.6499823064987165	-0.07030750239300762	1.399943501292564	-1.200057225603512	-1.200057225621173	-0.006211921401790726	0.2220817517788689	-0.5326281981801322	0.4238265289670541	5.614938672342059e-07	3.850625708780556e-07	-3.421838804749493e-06	-1.694955952686861e-07	8.361417523280112e-07	7.368799071723249e-08	5.024967441872071e-07
1.52	-0.3496051122749103	-0.01369627475873963	0.771170775917837	1.054573826980312	-0.4311283297187001	-0.2220013050083455	-0.2191932009663089	0.7775594163697263	0.7775594163695435	-0.1302023196834222	-0.1418539659808858	0.1330977685856276	-0.01178515541119088	0.6747865562787988	0.276133716890922	0.5272443475225241	-2.472924534458117	0.223046417723304	-0.720204995808756	0.3410937862261215	-2.072745020273723	-2.072745020273819	-0.1406798054673444	0.1446958584904441	-0.4402611403856747	0.02787104468308732	-0.1612927901138871	0.03813188393085327	-0.007904225504837496	-0.1983700741017193	0.03916717287227135	0.03338518999761603	0.1577890298610027	-19.20946796610525	-13.88330902967886	5.015835892871204	-6.454075435797129	-511.8761412342714	-53.79425901449027	-26.13000246645628	0.5536243227636103	0.64172372515543	-0.666662687205979	-0.8588115841703453	0.6796431681636146	-0.06118350153922091	1.407634355298433	-1.001462795519729	-1.001462795519744	0.1323325747839132	0.2159914784015534	-0.46351491493039	0.4935793433258649	5.331953755293105e-07	7.203615653533963e-07	-2.92779187317426e-06	-6.551918023142108e-08	7.956768368109489e-07	1.791547894065021e-07	4.824121003411212e-07
1.53	-0.3428296522275309	-0.01090327771283249	0.7764088699300257	1.029803467609981	-0.4288654715468859	-0.2292054305483912	-0.2157135060133397	0.7567843129993577	0.7567843129992611	-0.1316054876374048	-0.1403977629487697	0.128672119083211	-0.01148369162778782	0.6801994309791818	0.2824130817835955	0.5202640093471089	-2.480777575723464	0.2294982483174409	-0.7205034677780026	0.3547817793249112	-2.081975954499785	-2.081975954499888	-0.139956327197111	0.1465416745866933	-0.4448007353975096	0.03241892411195461	-0.1553607517431382	0.03730947927488186	-0.007521653525143376	-0.1952305135597561	0.03886472056226937	0.03254590885602471	0.1528791265481677	-19.11035894688294	-13.54795026173234	4.975834402677188	-6.067625019561901	-507.981470924554	-53.90672787497561	-27.06095861203517	0.5192311990353448	0.6131886711825132	-0.7301581917996655	-0.6930610188100381	0.6239293397035321	0.003699136952523292	1.339868030724672	-0.8390363915964653	-0.8390363915975309	0.04215876639110901	0.1680653816564349	-0.4389303759547605	0.434924836233763	4.646122095549865e-07	1.215041127785072e-06	-2.06617158313028e-06	9.887183436102171e-08	6.943671081933958e-07	2.818092540165383e-07	4.370419334511125e-07
1.54	-0.3360032410020781	-0.008049057858026832	0.7815738727986421	1.004965675702774	-0.4265388998021983	-0.2364089651718151	-0.212098833880673	0.735925874755632	0.7359258747556364	-0.1330014601460119	-0.138923264014433	0.1242031239143468	-0.01113684253138275	0.6849767918939599	0.2883782786706272	0.5126261188080729	-2.486411041832532	0.2357891322981722	-0.7200868124844553	0.3680892221659224	-2.089411994943729	-2.089411994943839	-0.1392407163969578	0.1483550389397376	-0.4489302736751332	0.03694810728348649	-0.1494287133724273	0.03648707461890408	-0.007139081545271484	-0.1920909530178088	0.03856226825226774	0.03170662771442561	0.1479692232352976	-19.01349402518267	-13.21631542902123	4.941130228624754	-5.717186402052957	-504.1354197296907	-54.06767360941132	-27.99105004517797	0.4265215656425842	0.5788901240270699	-0.7981731599301636	-0.4148965529142497	0.6474538454824782	0.08184195101954971	1.331524303742725	-0.642484039096261	-0.6424840390962641	0.1307590807678325	0.2095011297605545	-0.3815035680881106	0.4898400918587928	4.350795749195438e-07	1.51745557728937e-06	-1.625645886290477e-06	1.89613924825543e-07	6.588828784404948e-07	3.669112318437663e-07	4.177529563141957e-07
1.55	-0.3291321763271836	-0.005136693719238184	0.786659348227046	0.9800822540434572	-0.4241503640255925	-0.2436051504313857	-0.2083530328736385	0.7150020071014224	0.7150020071013797	-0.1343903364663868	-0.1374310473554521	0.1196950546457844	-0.0107448414539193	0.6891259516892076	0.2940477428963308	0.5043700039342102	-2.489916150456733	0.2418844440283292	-0.7190589201113988	0.3810148806252959	-2.095049851959454	-2.095049851959672	-0.1385209668834223	0.1500670466275558	-0.452590411578923	0.04145699023338743	-0.1434531075674938	0.03525044520984481	-0.006795564228518488	-0.1895384879820576	0.0389745544883751	0.0307865297226079	0.1430655898962986	-18.71118730384212	-12.88422964688568	4.904841181679088	-5.555536331168708	-500.6541796174525	-54.2285208291704	-28.92121691460336	0.3925965942204719	0.5539933972057107	-0.8540307594202236	-0.2647245000946222	0.585541403344169	0.1273680892069595	1.264671824646893	-0.4777708404846567	-0.477770840500807	0.04481857544329412	0.148492532630521	-0.3442406035931592	0.4320799028130036	4.505399437832443e-07	1.598347179290399e-06	-1.670294394664156e-06	1.954996461861592e-07	6.992410712925148e-07	4.317896922908033e-07	4.285140456319269e-07
